<?xml version="1.0" encoding="utf-8"?>
<!-- Generator: Adobe Illustrator 14.0.0, SVG Export Plug-In . SVG Version: 6.00 Build 43363)  -->
<!DOCTYPE svg PUBLIC "-//W3C//DTD SVG 1.1//EN" "http://www.w3.org/Graphics/SVG/1.1/DTD/svg11.dtd">
<svg version="1.1" id="Layer_1" xmlns="http://www.w3.org/2000/svg" xmlns:xlink="http://www.w3.org/1999/xlink" x="0px" y="0px"
	 width="219.5px" height="79.667px" viewBox="0 0 219.5 79.667" enable-background="new 0 0 219.5 79.667" xml:space="preserve">
<g id="Layer_3" display="none">
	<g display="inline" opacity="0.35">
		<g>
			<g>
				<path fill="#28467D" d="M127.833-329.167c2.726-2.797,12.994-17.608,12.994-17.608l4.59-1.936
					c8.026,7.727,14.117,17.126,20.832,25.544c3.826,4.543,7.597,8.887,11.842,12.399c4.236,3.463,7.958,5.339,4.909,4.267
					c-6.207-2.172-14.363-5.23-20-9c-5.047-3.465-8.497-6.693-12.667-12c-1.771-2.219,0.203-1.44-5-7.667
					c0,0-2.254,3.182-3.625,5.75c-3.944,7.387-8.917,11.238-12.118,13.351c-7.039,4.645-18.242,6.629-19.674,6.899
					C113.029-312.384,125.248-325.179,127.833-329.167z"/>
				<path fill="#28467D" d="M124.212-290.523c-4.462,5.939-4.84,14.277-4.782,15.604c0.131,1.611,0.32,4.209,0.812,5.738
					c1.832,6.129,7.266,12.633,13.715,15.934c6.422,3.344,12.777,3.703,20.104,2.473c7.211-1.176,11.248-4.453,14.855-11.559
					c3.865-8.09,3.801-18.653-0.667-26.375c-5.676-9.808-14.87-14.467-13.375-14.125c17.662,4.039,24.387,15.771,25.25,30.625
					c0.313,5.397-1.836,14.047-5.749,19.688c-3.697,5.398-8.376,9.438-15.626,12.188c-7.673,2.91-14.583,2.957-20.045,2.078
					c-6.705-1.078-10.634-3.146-13.492-4.6c-5.647-3.094-9.834-7-13.119-12.268c-3.028-4.854-4.92-12.051-4.883-17.34
					c-0.051-5.762,1.23-11.779,3.345-15.902c1.551-3.025,2.993-5.092,3.983-6.053c4.002-4.573,7.544-7.491,12.836-9.916
					c10.711-4.908,16.438-3.07,16.438-3.062c2.408,0.555,3.436,1.117,5.5,2.25C142.141-306.004,130.482-299.228,124.212-290.523z"/>
				<path fill="#28467D" d="M121.298-227.99c1.05-0.594,2.263-2.367,3.619-2.141c14.367-0.672,26.496,1.164,40.793,1.938
					c8.422,0.461,18.117-1.484,16.16-0.414c-3.914,2.234-7.568,4.035-11.695,6.117c-3.725,1.773-8.325,4.734-12.94,4.396
					c-11.514-0.699-16.691,2.979-18.492,3.633c-3.656,0.793-7.018-1.012-10.271-1.688c-0.445,0.316-1.818,0.691-2.295,0.441
					c-4.24-1.742-13.57-6.367-14.5-6.883C114.441-224.67,118.117-226.201,121.298-227.99z"/>
			</g>
		</g>
	</g>
</g>
<g id="Layer_2">
	<path fill="#134A86" d="M9.562,70.237c0.566-0.319,3.48-0.983,4.222-0.993c7.77-0.117,12.874,0.68,20.594,1.1
		c4.55,0.252,9.789-0.801,8.73-0.223c-2.116,1.209-3.825,2.76-6.056,3.894c-2.013,0.954-4.761,1.971-7.253,1.788
		c-6.22-0.383-8.779,0.25-9.978,0.52c-1.975,0.441-4.62,0.274-7.284-0.486c-1.244-0.355-6.501-3.234-6.84-3.416
		C7.193,71.292,7.876,70.902,9.562,70.237z"/>
	<path fill="#134A86" d="M12.257,13.037c1.566-1.859,6.602-9.08,6.602-9.08l4.131-2.375c4.514,5.18,5.054,6.299,9.216,11.445
		c1.803,2.236,9.708,10.414,9.548,10.41c-2.135-0.104-6.571-0.859-12.729-5.846c-2.992-2.427-4.952-5.067-6.793-7.268
		c0,0-2.804,4.967-7.313,8.215c-6.27,4.514-11.47,5.354-12.285,5.506C4.408,22.213,10.641,15.078,12.257,13.037z"/>
	<path fill="#134A86" d="M8.989,43.003c-0.182,6.027,3.6,11.164,8.875,13.158C28.282,60.104,34,54.226,36.059,50.173
		c2.201-4.606,2.164-10.63-0.383-15.024c-3.234-5.597-8.491-8.152-7.624-8.058c14.463,1.565,20.593,24.224,7.337,33.681
		c-4.761,3.399-10.685,3.753-15.415,3.129c-3.834-0.504-10.807-3.032-15.169-9.612c-1.802-2.721-5.183-10.24-0.875-18.947
		c0.856-1.741,3.389-6.209,9.042-9.016c6.017-2.979,11.798-2.555,11.541-2.467c-0.806,0.289-1.138,0.489-1.158,0.652
		c-0.061,0.473,2.649,0.529,3.531,1.012C22.802,25.035,9.409,28.99,8.989,43.003z"/>
	<g>
		<path d="M76.994,37.004c0,8.56-1.043,14.311-3.124,17.255c-2.081,2.951-5.187,4.427-9.317,4.427c-4.147,0-7.27-1.478-9.369-4.435
			s-3.148-8.703-3.148-17.248c0-8.645,1.045-14.408,3.136-17.285c2.089-2.884,5.218-4.322,9.381-4.322
			c4.198,0,7.317,1.308,9.365,3.92C75.966,21.932,76.994,27.827,76.994,37.004z M68.224,37.004c0-5.098-0.169-8.997-0.514-11.693
			c-0.339-2.693-1.394-4.044-3.157-4.044c-1.768,0-2.833,1.371-3.199,4.11c-0.367,2.736-0.548,6.617-0.548,11.627
			c0,5.66,0.194,9.712,0.586,12.152c0.392,2.443,1.446,3.658,3.161,3.658c1.797,0,2.862-1.359,3.184-4.08
			C68.062,46.011,68.224,42.1,68.224,37.004z"/>
		<path d="M101.286,41.071c0,1.673-0.031,3.175-0.087,4.513c-0.059,1.344-0.164,2.771-0.312,4.285
			c-0.249,2.48-1.107,4.457-2.574,5.93c-1.465,1.477-3.371,2.217-5.721,2.217c-1.215,0-2.22-0.066-3.009-0.204
			c-0.792-0.129-1.336-0.321-1.636-0.576v9.319h-7.971v-40.84h6.572l0.449,1.495c0.916-0.73,1.908-1.231,2.971-1.51
			c1.069-0.28,2.25-0.411,3.55-0.411c2.113,0,3.789,0.649,5.02,1.952c1.233,1.294,2.007,3.138,2.325,5.518
			c0.131,0.882,0.235,2.088,0.312,3.608C101.249,37.891,101.286,39.459,101.286,41.071z M92.992,41.167
			c0-1.742-0.024-3.225-0.074-4.454c-0.05-1.237-0.141-2.308-0.274-3.228c-0.149-0.965-0.425-1.694-0.833-2.175
			c-0.403-0.485-1.012-0.729-1.825-0.729c-0.167,0-0.171-0.02-0.016-0.06c0.16-0.044-0.515,0.097-2.022,0.411v22.01
			c0.279,0.232,0.594,0.383,0.941,0.459c0.351,0.077,0.822,0.109,1.418,0.109c0.681,0,1.253-0.249,1.717-0.748
			c0.463-0.498,0.693-1.205,0.693-2.123c0.052-0.631,0.109-2.014,0.176-4.141C92.958,44.373,92.992,42.598,92.992,41.167z"/>
		<path d="M123.941,42.277H112.3c0,4.756,0.181,7.785,0.548,9.084c0.366,1.303,1.135,1.95,2.299,1.95
			c0.783,0,1.362-0.239,1.748-0.741c0.383-0.488,0.574-1.354,0.574-2.574h5.695c0,2.846-0.725,4.945-2.173,6.291
			c-1.449,1.353-3.688,2.025-6.72,2.025c-3.347,0-5.888-1.393-7.618-4.16c-1.732-2.771-2.599-6.896-2.599-12.377
			c0-5.443,0.897-9.552,2.698-12.326c1.798-2.775,4.506-4.161,8.118-4.161c3.113,0,5.404,1.11,6.867,3.335
			c1.469,2.225,2.201,5.552,2.201,10.004v3.65H123.941z M117.346,37.629c0-2.812-0.15-4.746-0.451-5.785
			c-0.297-1.041-0.99-1.562-2.072-1.562c-1.031,0-1.707,0.467-2.025,1.393c-0.314,0.919-0.474,2.908-0.474,5.955L117.346,37.629
			L117.346,37.629z"/>
		<path d="M148.21,58.015h-7.965v-24.66c0-0.946-0.251-1.647-0.754-2.097c-0.502-0.45-1.188-0.677-2.058-0.677
			c-0.386,0-0.816,0.039-1.291,0.112c-0.479,0.075-0.879,0.179-1.195,0.312v27.008h-7.969V25.714h6.545L134,27.111
			c1.113-0.664,2.159-1.134,3.134-1.412c0.976-0.28,2.095-0.411,3.362-0.411c2.429,0,4.32,0.673,5.681,2.009
			c1.357,1.344,2.034,3.252,2.034,5.733L148.21,58.015L148.21,58.015z"/>
		<path d="M171.859,58.015h-9.717c-3.584,0-6.281-0.896-8.095-2.676c-1.817-1.782-2.723-4.487-2.723-8.118V26.707
			c0-4.327,0.786-7.217,2.36-8.676c1.573-1.46,4.491-2.188,8.754-2.188h8.345v4.744h-6.095c-1.866,0-3.146,0.41-3.834,1.225
			c-0.691,0.823-1.037,2.24-1.037,4.279v3.64h10.093v5.647h-10.093v10.87c0,2.51,0.425,4.312,1.271,5.396
			c0.852,1.079,2.325,1.617,4.422,1.617h6.348V58.015L171.859,58.015z"/>
		<path d="M186.904,52.973V26.067h7.97V57.35c0,3.247-0.999,5.708-2.999,7.386c-1.998,1.686-4.904,2.527-8.717,2.527
			c-1.432,0-2.883-0.135-4.346-0.403c-1.467-0.267-2.795-0.675-3.998-1.226l0.826-3.743c1.268,0.364,2.428,0.626,3.478,0.78
			c1.052,0.16,2.095,0.24,3.13,0.24c1.72,0,2.986-0.461,3.807-1.367c0.816-0.916,1.229-2.31,1.229-4.174
			c0-0.238-0.065-1.088-0.065-0.688c0,0.112-1.011,0.084-1.011,0.084h-5.271c0,0-3.595-0.386-5.377-2.492
			c-1.865-2.209-1.914-6.146-1.914-6.146V26.067h7.967v22.591c0,0-0.232,3.592,1.722,4.301"/>
		<path d="M217.312,42.277h-11.641c0,4.756,0.184,7.785,0.553,9.084c0.362,1.303,1.131,1.95,2.295,1.95
			c0.783,0,1.365-0.239,1.748-0.741c0.383-0.488,0.574-1.354,0.574-2.574h5.696c0,2.846-0.722,4.945-2.172,6.291
			c-1.448,1.353-3.69,2.025-6.72,2.025c-3.349,0-5.888-1.393-7.619-4.16c-1.729-2.771-2.598-6.896-2.598-12.377
			c0-5.443,0.899-9.552,2.698-12.326c1.8-2.775,4.504-4.161,8.118-4.161c3.113,0,5.402,1.11,6.871,3.335
			c1.466,2.225,2.197,5.552,2.197,10.004v3.65H217.312z M210.718,37.629c0-2.812-0.149-4.746-0.45-5.785
			c-0.297-1.041-0.99-1.562-2.072-1.562c-1.034,0-1.707,0.467-2.023,1.393c-0.314,0.919-0.474,2.908-0.474,5.955L210.718,37.629
			L210.718,37.629z"/>
	</g>
	<g enable-background="new    ">
		<path fill="#134A86" d="M97.61,71.034c0.512,0.269,1.33,0.537,2.161,0.537c0.895,0,1.368-0.371,1.368-0.934
			c0-0.537-0.409-0.844-1.445-1.201c-1.432-0.512-2.378-1.305-2.378-2.558c0-1.471,1.24-2.583,3.261-2.583
			c0.984,0,1.688,0.191,2.199,0.435l-0.435,1.56c-0.333-0.166-0.959-0.408-1.791-0.408c-0.844,0-1.253,0.396-1.253,0.831
			c0,0.55,0.473,0.792,1.599,1.214c1.521,0.563,2.225,1.355,2.225,2.57c0,1.445-1.1,2.673-3.465,2.673
			c-0.984,0-1.956-0.269-2.442-0.537L97.61,71.034z"/>
		<path fill="#134A86" d="M110.77,72.811c-0.345,0.167-1.163,0.371-2.199,0.371c-2.979,0-4.514-1.867-4.514-4.322
			c0-2.94,2.097-4.564,4.706-4.564c1.01,0,1.777,0.191,2.122,0.384l-0.408,1.534c-0.384-0.166-0.934-0.319-1.637-0.319
			c-1.535,0-2.736,0.933-2.736,2.851c0,1.727,1.023,2.813,2.749,2.813c0.601,0,1.24-0.115,1.636-0.281L110.77,72.811z"/>
		<path fill="#134A86" d="M114.02,64.423v8.618h-1.943v-8.618H114.02z"/>
		<path fill="#134A86" d="M120.836,69.397h-3.172v2.046h3.542v1.599h-5.485v-8.618h5.307v1.599h-3.363v1.79h3.172V69.397z"/>
		<path fill="#134A86" d="M122.537,73.042v-8.618h2.277l1.789,3.158c0.512,0.908,1.011,1.981,1.407,2.954h0.025
			c-0.115-1.139-0.153-2.302-0.153-3.606v-2.506h1.79v8.618h-2.046l-1.842-3.324c-0.512-0.921-1.086-2.033-1.496-3.044h-0.051
			c0.064,1.151,0.09,2.366,0.09,3.772v2.596H122.537z"/>
		<path fill="#134A86" d="M133.037,66.06h-2.326v-1.637h6.623v1.637h-2.354v6.981h-1.943V66.06z"/>
		<path fill="#134A86" d="M140.328,64.423v8.618h-1.943v-8.618H140.328z"/>
		<path fill="#134A86" d="M142.029,64.423h5.256v1.599h-3.312v1.969h3.094v1.586h-3.094v3.465h-1.943V64.423z"/>
		<path fill="#134A86" d="M150.713,64.423v8.618h-1.943v-8.618H150.713z"/>
		<path fill="#134A86" d="M158.719,72.811c-0.346,0.167-1.164,0.371-2.199,0.371c-2.98,0-4.514-1.867-4.514-4.322
			c0-2.94,2.096-4.564,4.705-4.564c1.01,0,1.777,0.191,2.123,0.384l-0.41,1.534c-0.383-0.166-0.934-0.319-1.637-0.319
			c-1.534,0-2.736,0.933-2.736,2.851c0,1.727,1.023,2.813,2.75,2.813c0.601,0,1.24-0.115,1.637-0.281L158.719,72.811z"/>
	</g>
</g>
<g id="Layer_4">
</g>
</svg>
